<svg width="30" height="20" viewBox="0 0 30 20" fill="none" xmlns="http://www.w3.org/2000/svg">
<g clip-path="url(#clip0_25_2)">
<path d="M0.0597015 18.3892L13.194 10.6259L0 2.83273V17.915C0 18.0773 0.021322 18.2354 0.0597015 18.3892Z" fill="#4D4E50"/>
<path d="M13.7783 10.9677L0.281494 18.9404C0.639703 19.5685 1.30495 20 2.08107 20H27.9233C28.7634 20 29.4841 19.4958 29.8124 18.778L16.5928 10.9677L15.1855 11.7966L13.7783 10.9677Z" fill="#4D4E50"/>
<path d="M30 17.915V3.04636L17.1685 10.6259L29.9702 18.1927C29.983 18.103 30 18.0132 30 17.915Z" fill="#4D4E50"/>
<path d="M2.08102 0C0.929638 0 0 0.931425 0 2.08075V2.14484L15.1812 11.113L30 2.35847V2.08075C30 0.931425 29.0704 0 27.919 0H2.08102V0Z" fill="#4D4E50"/>
</g>
<defs>
<clipPath id="clip0_25_2">
<rect width="30" height="20" fill="white"/>
</clipPath>
</defs>
</svg>
